<svg width="29" height="28" viewBox="0 0 29 28" fill="none" xmlns="http://www.w3.org/2000/svg">
<path d="M25.8281 3.38876H23.5625V2.48251C23.5625 2.00181 23.3715 1.54079 23.0316 1.20088C22.6917 0.860973 22.2307 0.670013 21.75 0.670013C21.2693 0.670013 20.8083 0.860973 20.4684 1.20088C20.1285 1.54079 19.9375 2.00181 19.9375 2.48251V3.38876H16.3125V2.48251C16.3125 2.00181 16.1215 1.54079 15.7816 1.20088C15.4417 0.860973 14.9807 0.670013 14.5 0.670013C14.0193 0.670013 13.5583 0.860973 13.2184 1.20088C12.8785 1.54079 12.6875 2.00181 12.6875 2.48251V3.38876H9.0625V2.48251C9.0625 2.00181 8.87154 1.54079 8.53163 1.20088C8.19172 0.860973 7.7307 0.670013 7.25 0.670013C6.7693 0.670013 6.30828 0.860973 5.96837 1.20088C5.62846 1.54079 5.4375 2.00181 5.4375 2.48251V3.38876H3.17188C2.57099 3.38876 1.99472 3.62746 1.56984 4.05235C1.14495 4.47724 0.90625 5.05351 0.90625 5.65439V23.7794C0.90625 24.3803 1.14495 24.9565 1.56984 25.3814C1.99472 25.8063 2.57099 26.045 3.17188 26.045H15.8594C15.9796 26.045 16.0948 25.9973 16.1798 25.9123C16.2648 25.8273 16.3125 25.7121 16.3125 25.5919C16.3125 25.4717 16.2648 25.3565 16.1798 25.2715C16.0948 25.1865 15.9796 25.1388 15.8594 25.1388H3.17188C2.81168 25.1377 2.46654 24.9941 2.21184 24.7394C1.95714 24.4847 1.81358 24.1396 1.8125 23.7794V9.73251H27.1875V17.4356C27.1875 17.5558 27.2352 17.6711 27.3202 17.756C27.4052 17.841 27.5204 17.8888 27.6406 17.8888C27.7608 17.8888 27.8761 17.841 27.961 17.756C28.046 17.6711 28.0938 17.5558 28.0938 17.4356V5.65439C28.0938 5.05351 27.8551 4.47724 27.4302 4.05235C27.0053 3.62746 26.429 3.38876 25.8281 3.38876ZM20.8438 2.48251C20.8438 2.24216 20.9392 2.01165 21.1092 1.8417C21.2791 1.67174 21.5096 1.57626 21.75 1.57626C21.9904 1.57626 22.2209 1.67174 22.3908 1.8417C22.5608 2.01165 22.6562 2.24216 22.6562 2.48251V5.20126C22.6562 5.44162 22.5608 5.67212 22.3908 5.84208C22.2209 6.01203 21.9904 6.10751 21.75 6.10751C21.5096 6.10751 21.2791 6.01203 21.1092 5.84208C20.9392 5.67212 20.8438 5.44162 20.8438 5.20126V2.48251ZM13.5938 2.48251C13.5938 2.24216 13.6892 2.01165 13.8592 1.8417C14.0291 1.67174 14.2596 1.57626 14.5 1.57626C14.7404 1.57626 14.9709 1.67174 15.1408 1.8417C15.3108 2.01165 15.4062 2.24216 15.4062 2.48251V5.20126C15.4062 5.44162 15.3108 5.67212 15.1408 5.84208C14.9709 6.01203 14.7404 6.10751 14.5 6.10751C14.2596 6.10751 14.0291 6.01203 13.8592 5.84208C13.6892 5.67212 13.5938 5.44162 13.5938 5.20126V2.48251ZM6.34375 2.48251C6.34375 2.24216 6.43923 2.01165 6.60918 1.8417C6.77914 1.67174 7.00965 1.57626 7.25 1.57626C7.49035 1.57626 7.72086 1.67174 7.89082 1.8417C8.06077 2.01165 8.15625 2.24216 8.15625 2.48251V5.20126C8.15625 5.44162 8.06077 5.67212 7.89082 5.84208C7.72086 6.01203 7.49035 6.10751 7.25 6.10751C7.00965 6.10751 6.77914 6.01203 6.60918 5.84208C6.43923 5.67212 6.34375 5.44162 6.34375 5.20126V2.48251ZM27.1875 8.82626H1.8125V5.65439C1.81358 5.29419 1.95714 4.94905 2.21184 4.69435C2.46654 4.43965 2.81168 4.29609 3.17188 4.29501H5.4375V5.20126C5.4375 5.68197 5.62846 6.14298 5.96837 6.48289C6.30828 6.8228 6.7693 7.01376 7.25 7.01376C7.7307 7.01376 8.19172 6.8228 8.53163 6.48289C8.87154 6.14298 9.0625 5.68197 9.0625 5.20126V4.29501H12.6875V5.20126C12.6875 5.68197 12.8785 6.14298 13.2184 6.48289C13.5583 6.8228 14.0193 7.01376 14.5 7.01376C14.9807 7.01376 15.4417 6.8228 15.7816 6.48289C16.1215 6.14298 16.3125 5.68197 16.3125 5.20126V4.29501H19.9375V5.20126C19.9375 5.68197 20.1285 6.14298 20.4684 6.48289C20.8083 6.8228 21.2693 7.01376 21.75 7.01376C22.2307 7.01376 22.6917 6.8228 23.0316 6.48289C23.3715 6.14298 23.5625 5.68197 23.5625 5.20126V4.29501H25.8281C26.1883 4.29609 26.5335 4.43965 26.7882 4.69435C27.0429 4.94905 27.1864 5.29419 27.1875 5.65439V8.82626Z" fill="black"/>
<path d="M13.5938 12.9044C13.5938 12.664 13.4983 12.4335 13.3283 12.2636C13.1584 12.0936 12.9279 11.9981 12.6875 11.9981H10.875C10.6346 11.9981 10.4041 12.0936 10.2342 12.2636C10.0642 12.4335 9.96875 12.664 9.96875 12.9044V14.2638C9.96875 14.5041 10.0642 14.7346 10.2342 14.9046C10.4041 15.0745 10.6346 15.17 10.875 15.17H12.6875C12.9279 15.17 13.1584 15.0745 13.3283 14.9046C13.4983 14.7346 13.5938 14.5041 13.5938 14.2638V12.9044ZM10.875 14.2638V12.9044H12.6875V14.2638H10.875Z" fill="black"/>
<path d="M8.15625 12.9044C8.15625 12.664 8.06077 12.4335 7.89082 12.2636C7.72086 12.0936 7.49035 11.9981 7.25 11.9981H5.4375C5.19715 11.9981 4.96664 12.0936 4.79668 12.2636C4.62673 12.4335 4.53125 12.664 4.53125 12.9044V14.2638C4.53125 14.5041 4.62673 14.7346 4.79668 14.9046C4.96664 15.0745 5.19715 15.17 5.4375 15.17H7.25C7.49035 15.17 7.72086 15.0745 7.89082 14.9046C8.06077 14.7346 8.15625 14.5041 8.15625 14.2638V12.9044ZM5.4375 14.2638V12.9044H7.25V14.2638H5.4375Z" fill="black"/>
<path d="M23.5625 15.17C23.8029 15.17 24.0334 15.0745 24.2033 14.9046C24.3733 14.7346 24.4688 14.5041 24.4688 14.2638V12.9044C24.4688 12.664 24.3733 12.4335 24.2033 12.2636C24.0334 12.0936 23.8029 11.9981 23.5625 11.9981H21.75C21.5096 11.9981 21.2791 12.0936 21.1092 12.2636C20.9392 12.4335 20.8438 12.664 20.8438 12.9044V14.2638C20.8438 14.5041 20.9392 14.7346 21.1092 14.9046C21.2791 15.0745 21.5096 15.17 21.75 15.17H23.5625ZM21.75 12.9044H23.5625V14.2638H21.75V12.9044Z" fill="black"/>
<path d="M13.5938 16.9825C13.5938 16.7422 13.4983 16.5117 13.3283 16.3417C13.1584 16.1717 12.9279 16.0763 12.6875 16.0763H10.875C10.6346 16.0763 10.4041 16.1717 10.2342 16.3417C10.0642 16.5117 9.96875 16.7422 9.96875 16.9825V18.3419C9.96875 18.5822 10.0642 18.8127 10.2342 18.9827C10.4041 19.1527 10.6346 19.2481 10.875 19.2481H12.6875C12.9279 19.2481 13.1584 19.1527 13.3283 18.9827C13.4983 18.8127 13.5938 18.5822 13.5938 18.3419V16.9825ZM10.875 18.3419V16.9825H12.6875V18.3419H10.875Z" fill="black"/>
<path d="M8.15625 16.9825C8.15625 16.7422 8.06077 16.5117 7.89082 16.3417C7.72086 16.1717 7.49035 16.0763 7.25 16.0763H5.4375C5.19715 16.0763 4.96664 16.1717 4.79668 16.3417C4.62673 16.5117 4.53125 16.7422 4.53125 16.9825V18.3419C4.53125 18.5822 4.62673 18.8127 4.79668 18.9827C4.96664 19.1527 5.19715 19.2481 5.4375 19.2481H7.25C7.49035 19.2481 7.72086 19.1527 7.89082 18.9827C8.06077 18.8127 8.15625 18.5822 8.15625 18.3419V16.9825ZM5.4375 18.3419V16.9825H7.25V18.3419H5.4375Z" fill="black"/>
<path d="M12.6875 20.1544H10.875C10.6346 20.1544 10.4041 20.2499 10.2342 20.4198C10.0642 20.5898 9.96875 20.8203 9.96875 21.0606V22.42C9.96875 22.6604 10.0642 22.8909 10.2342 23.0608C10.4041 23.2308 10.6346 23.3263 10.875 23.3263H12.6875C12.9279 23.3263 13.1584 23.2308 13.3283 23.0608C13.4983 22.8909 13.5938 22.6604 13.5938 22.42V21.0606C13.5938 20.8203 13.4983 20.5898 13.3283 20.4198C13.1584 20.2499 12.9279 20.1544 12.6875 20.1544ZM10.875 22.42V21.0606H12.6875V22.42H10.875Z" fill="black"/>
<path d="M16.3125 15.17H18.125C18.3654 15.17 18.5959 15.0745 18.7658 14.9046C18.9358 14.7346 19.0312 14.5041 19.0312 14.2638V12.9044C19.0312 12.664 18.9358 12.4335 18.7658 12.2636C18.5959 12.0936 18.3654 11.9981 18.125 11.9981H16.3125C16.0721 11.9981 15.8416 12.0936 15.6717 12.2636C15.5017 12.4335 15.4062 12.664 15.4062 12.9044V14.2638C15.4062 14.5041 15.5017 14.7346 15.6717 14.9046C15.8416 15.0745 16.0721 15.17 16.3125 15.17ZM16.3125 12.9044H18.125V14.2638H16.3125V12.9044Z" fill="black"/>
<path d="M15.4062 18.3419C15.4062 18.5822 15.5017 18.8127 15.6717 18.9827C15.8416 19.1527 16.0721 19.2481 16.3125 19.2481C16.4327 19.2481 16.5479 19.2004 16.6329 19.1154C16.7179 19.0304 16.7656 18.9152 16.7656 18.795C16.7656 18.6748 16.7179 18.5596 16.6329 18.4746C16.5479 18.3896 16.4327 18.3419 16.3125 18.3419V16.9825H18.125C18.2452 16.9825 18.3604 16.9348 18.4454 16.8498C18.5304 16.7648 18.5781 16.6496 18.5781 16.5294C18.5781 16.4092 18.5304 16.294 18.4454 16.209C18.3604 16.124 18.2452 16.0763 18.125 16.0763H16.3125C16.0721 16.0763 15.8416 16.1717 15.6717 16.3417C15.5017 16.5117 15.4062 16.7422 15.4062 16.9825V18.3419Z" fill="black"/>
<path d="M7.25 20.1544H5.4375C5.19715 20.1544 4.96664 20.2499 4.79668 20.4198C4.62673 20.5898 4.53125 20.8203 4.53125 21.0606V22.42C4.53125 22.6604 4.62673 22.8909 4.79668 23.0608C4.96664 23.2308 5.19715 23.3263 5.4375 23.3263H7.25C7.49035 23.3263 7.72086 23.2308 7.89082 23.0608C8.06077 22.8909 8.15625 22.6604 8.15625 22.42V21.0606C8.15625 20.8203 8.06077 20.5898 7.89082 20.4198C7.72086 20.2499 7.49035 20.1544 7.25 20.1544ZM5.4375 22.42V21.0606H7.25V22.42H5.4375Z" fill="black"/>
<path d="M22.2031 16.0763C21.0381 16.0763 19.8992 16.4217 18.9305 17.069C17.9618 17.7163 17.2067 18.6363 16.7609 19.7126C16.3151 20.789 16.1984 21.9734 16.4257 23.1161C16.653 24.2588 17.214 25.3084 18.0378 26.1322C18.8616 26.956 19.9113 27.517 21.0539 27.7443C22.1966 27.9716 23.381 27.855 24.4574 27.4091C25.5337 26.9633 26.4537 26.2083 27.101 25.2395C27.7483 24.2708 28.0938 23.1319 28.0938 21.9669C28.092 20.4051 27.4708 18.9079 26.3664 17.8036C25.2621 16.6993 23.7649 16.0781 22.2031 16.0763ZM22.2031 26.9513C21.2173 26.9513 20.2536 26.6589 19.434 26.1112C18.6143 25.5636 17.9754 24.7851 17.5982 23.8743C17.2209 22.9636 17.1222 21.9614 17.3145 20.9945C17.5068 20.0276 17.9816 19.1395 18.6786 18.4424C19.3757 17.7453 20.2639 17.2706 21.2307 17.0783C22.1976 16.886 23.1998 16.9847 24.1106 17.3619C25.0213 17.7392 25.7998 18.378 26.3475 19.1977C26.8952 20.0174 27.1875 20.9811 27.1875 21.9669C27.1859 23.2883 26.6603 24.5552 25.7259 25.4897C24.7915 26.4241 23.5246 26.9497 22.2031 26.9513Z" fill="black"/>
<path d="M24.8214 20.0674L21.297 23.5918L19.6952 21.9895C19.6097 21.907 19.4952 21.8613 19.3764 21.8624C19.2576 21.8634 19.144 21.911 19.06 21.9951C18.976 22.0791 18.9283 22.1927 18.9273 22.3115C18.9262 22.4303 18.9719 22.5448 19.0544 22.6303L20.9766 24.5529C21.0616 24.6378 21.1768 24.6855 21.297 24.6855C21.4171 24.6855 21.5323 24.6378 21.6173 24.5529L25.4621 20.7081C25.5446 20.6226 25.5903 20.5082 25.5893 20.3894C25.5882 20.2706 25.5406 20.1569 25.4566 20.0729C25.3726 19.9889 25.2589 19.9412 25.1401 19.9402C25.0213 19.9392 24.9068 19.9848 24.8214 20.0674Z" fill="black"/>
</svg>
