<svg width="18" height="22" viewBox="0 0 18 22" fill="none" xmlns="http://www.w3.org/2000/svg">
<path d="M15.7151 2.8013H12.07V2.13856C12.07 1.04226 11.1781 0.15033 10.0818 0.15033H7.4308C6.3345 0.15033 5.44257 1.04226 5.44257 2.13856V2.8013H1.79748C0.883892 2.8013 0.140625 3.54457 0.140625 4.45816V6.77776C0.140625 7.14376 0.437368 7.44051 0.803369 7.44051H1.16556L1.73813 19.4645C1.7887 20.5263 2.66104 21.3581 3.72408 21.3581H13.7885C14.8516 21.3581 15.7239 20.5263 15.7745 19.4645L16.347 7.44051H16.7092C17.0752 7.44051 17.372 7.14376 17.372 6.77776V4.45816C17.372 3.54457 16.6287 2.8013 15.7151 2.8013ZM6.76806 2.13856C6.76806 1.77314 7.06538 1.47582 7.4308 1.47582H10.0818C10.4472 1.47582 10.7445 1.77314 10.7445 2.13856V2.8013H6.76806V2.13856ZM1.46611 4.45816C1.46611 4.27545 1.61477 4.12679 1.79748 4.12679H15.7151C15.8978 4.12679 16.0465 4.27545 16.0465 4.45816V6.11502C15.8422 6.11502 2.31248 6.11502 1.46611 6.11502V4.45816ZM14.4505 19.4014C14.4336 19.7554 14.1428 20.0326 13.7885 20.0326H3.72408C3.36972 20.0326 3.07894 19.7554 3.06212 19.4014L2.49254 7.44051H15.02L14.4505 19.4014Z" fill="#4E493E"/>
<path d="M8.75649 18.7072C9.12249 18.7072 9.41924 18.4104 9.41924 18.0444V9.42876C9.41924 9.06276 9.12249 8.76601 8.75649 8.76601C8.39049 8.76601 8.09375 9.06276 8.09375 9.42876V18.0444C8.09375 18.4104 8.39045 18.7072 8.75649 18.7072Z" fill="#4E493E"/>
<path d="M12.07 18.7072C12.436 18.7072 12.7327 18.4104 12.7327 18.0444V9.42876C12.7327 9.06276 12.436 8.76601 12.07 8.76601C11.704 8.76601 11.4072 9.06276 11.4072 9.42876V18.0444C11.4072 18.4104 11.7039 18.7072 12.07 18.7072Z" fill="#4E493E"/>
<path d="M5.44253 18.7072C5.80853 18.7072 6.10527 18.4104 6.10527 18.0444V9.42876C6.10527 9.06276 5.80853 8.76601 5.44253 8.76601C5.07653 8.76601 4.77979 9.06276 4.77979 9.42876V18.0444C4.77979 18.4104 5.07649 18.7072 5.44253 18.7072Z" fill="#4E493E"/>
</svg>
