<svg width="22" height="21" viewBox="0 0 22 21" fill="none" xmlns="http://www.w3.org/2000/svg">
<path d="M19.5618 13.3587C19.2795 13.3587 19.0507 13.5875 19.0507 13.8698V18.4078C19.0497 19.2543 18.3639 19.9403 17.5174 19.9411H3.17657C2.33007 19.9403 1.64428 19.2543 1.64329 18.4078V5.08915C1.64428 4.24285 2.33007 3.55686 3.17657 3.55586H7.71455C7.99685 3.55586 8.22565 3.32706 8.22565 3.04476C8.22565 2.76266 7.99685 2.53367 7.71455 2.53367H3.17657C1.76587 2.53526 0.622691 3.67844 0.621094 5.08915V18.408C0.622691 19.8187 1.76587 20.9619 3.17657 20.9635H17.5174C18.9281 20.9619 20.0713 19.8187 20.0729 18.408V13.8698C20.0729 13.5875 19.8441 13.3587 19.5618 13.3587Z" fill="#826007"/>
<path d="M19.8705 1.21864C18.9723 0.320428 17.516 0.320428 16.6178 1.21864L7.49954 10.3369C7.43705 10.3994 7.39193 10.4769 7.36837 10.5619L6.16929 14.8909C6.11997 15.0684 6.17008 15.2584 6.30025 15.3888C6.43062 15.519 6.62069 15.5691 6.79817 15.52L11.1271 14.3207C11.2122 14.2971 11.2896 14.252 11.3521 14.1895L20.4702 5.07103C21.367 4.17222 21.367 2.71719 20.4702 1.81838L19.8705 1.21864ZM8.61317 10.6691L16.0758 3.20633L18.4825 5.61307L11.0197 13.0759L8.61317 10.6691ZM8.13242 11.6338L10.0552 13.5568L7.39552 14.2937L8.13242 11.6338ZM19.7475 4.34831L19.2055 4.89035L16.7985 2.4834L17.3407 1.94136C17.8397 1.44244 18.6486 1.44244 19.1476 1.94136L19.7475 2.5411C20.2456 3.04062 20.2456 3.84899 19.7475 4.34831Z" fill="#826007"/>
</svg>
