<svg width="29" height="23" viewBox="0 0 29 23" fill="none" xmlns="http://www.w3.org/2000/svg">
<path d="M24.795 7.83253C25.6197 7.02478 26.1 5.92136 26.1 4.73876C26.1 2.34026 24.1487 0.388763 21.75 0.388763C20.9575 0.388763 20.1778 0.606603 19.4943 1.01889C19.2659 1.15698 19.1922 1.45383 19.33 1.68255C19.4678 1.91126 19.7652 1.98416 19.9937 1.84681C20.5266 1.52537 21.1336 1.35545 21.75 1.35545C23.6153 1.35545 25.1333 2.87319 25.1333 4.73876C25.1333 5.88761 24.558 6.94656 23.5922 7.57289C22.7813 8.10486 21.7533 8.25824 20.8145 7.99084C20.5605 7.91766 20.2905 8.06589 20.2169 8.32264C20.1437 8.57939 20.2924 8.84679 20.5492 8.9202C20.94 9.03207 21.3441 9.08871 21.75 9.08871C22.51 9.08871 23.2446 8.8814 23.8969 8.50701C26.378 9.40606 28.0333 11.7487 28.0333 14.4054V16.8221H23.626C23.2837 13.5938 21.2526 10.7688 18.2902 9.42736C19.2329 8.46753 19.8166 7.15392 19.8166 5.70545C19.8167 2.77379 17.4316 0.388763 14.5 0.388763C11.5684 0.388763 9.18331 2.77379 9.18331 5.70545C9.18331 7.15437 9.76739 8.46838 10.7106 9.42832C9.71364 9.88128 8.78898 10.515 8.00474 11.2947C6.50132 12.8025 5.58646 14.7376 5.3693 16.8222H0.966686V14.4055C0.966686 12.7318 1.62043 11.1537 2.80564 9.96346C3.45808 9.31516 4.25241 8.82057 5.10768 8.50973C5.76001 8.88259 6.49243 9.08876 7.25 9.08876C7.65594 9.08876 8.05996 9.03212 8.45078 8.92026C8.70753 8.84685 8.85621 8.57945 8.78309 8.3227C8.70946 8.06595 8.43945 7.91794 8.18553 7.9909C7.24717 8.25875 6.21965 8.1056 5.40544 7.57176C4.4421 6.94656 3.86669 5.88766 3.86669 4.73876C3.86669 2.87319 5.38465 1.35545 7.25 1.35545C7.86642 1.35545 8.47344 1.52537 9.00631 1.84681C9.23571 1.98416 9.53165 1.91053 9.66997 1.68255C9.80778 1.45389 9.73414 1.15698 9.50571 1.01889C8.82223 0.606603 8.04252 0.388763 7.25 0.388763C4.85127 0.388763 2.9 2.34026 2.9 4.73876C2.9 5.92046 3.37946 7.02302 4.20183 7.83004C3.43531 8.18637 2.72736 8.67829 2.12215 9.27947C0.753773 10.6539 0 12.4742 0 14.4054V17.3054C0 17.5724 0.216197 17.7888 0.483314 17.7888H5.31663V21.6554C5.31663 21.9224 5.53283 22.1388 5.79994 22.1388H23.1999C23.4671 22.1388 23.6833 21.9223 23.6833 21.6554V17.7888H28.5166C28.7837 17.7888 28.9999 17.5723 28.9999 17.3054V14.4054C29 11.5476 27.3392 9.00539 24.795 7.83253ZM10.15 5.70545C10.15 3.30695 12.1013 1.35545 14.5 1.35545C16.8987 1.35545 18.85 3.30695 18.85 5.70545C18.85 8.10395 16.8987 10.0554 14.5 10.0554C12.1013 10.0554 10.15 8.1039 10.15 5.70545ZM22.7167 21.1721H6.28331V17.7888C6.28331 15.5972 7.13762 13.5334 8.68771 11.9786C9.5043 11.1664 10.4943 10.5364 11.5557 10.1288C12.3993 10.6922 13.4116 11.0221 14.5 11.0221C15.5902 11.0221 16.6043 10.6912 17.4487 10.1261C20.608 11.34 22.7167 14.3858 22.7167 17.7888V21.1721Z" fill="black"/>
</svg>
