<svg width="30" height="30" viewBox="0 0 30 30" fill="none" xmlns="http://www.w3.org/2000/svg">
<g clip-path="url(#clip0_1406_1603)">
<path d="M29.4971 14.9986C29.4971 23.0059 23.0059 29.4971 14.9986 29.4971C6.99123 29.4971 0.5 23.0059 0.5 14.9986C0.5 6.99123 6.99123 0.5 14.9986 0.5C23.0059 0.5 29.4971 6.99123 29.4971 14.9986Z" fill="#E9CEFF" stroke="#8F41CF"/>
<path fill-rule="evenodd" clip-rule="evenodd" d="M9.08696 15.3919V15.8168C9.08696 15.9719 9.16448 16.1068 9.28794 16.1843L8.35197 16.9423H7.95001L7.01404 16.1843C7.13749 16.1068 7.21501 15.9719 7.21501 15.8168V15.4579C7.26669 15.4924 7.32124 15.524 7.3758 15.5556C7.47628 15.6159 7.79785 15.7623 8.10792 15.7623C8.42948 15.7623 8.73956 15.613 8.84292 15.5498C8.92905 15.4981 9.01232 15.4465 9.08696 15.3919Z" fill="#FED198"/>
<path fill-rule="evenodd" clip-rule="evenodd" d="M6.12405 11.6997C6.18435 9.94258 9.9627 9.78754 10.023 11.6997C10.023 12.116 10.0172 12.4864 10.0058 12.8108C10.1091 12.7505 10.3388 12.7218 10.379 12.9343C10.4221 13.1783 10.2843 14.0683 9.91102 13.9391C9.77321 14.7746 9.47461 15.1766 8.84297 15.5498C8.73961 15.613 8.42954 15.7623 8.10798 15.7623C7.7979 15.7623 7.47634 15.6159 7.37585 15.5556C6.81311 15.2254 6.46858 14.8378 6.28771 13.9851C5.91446 14.0827 5.73071 13.1898 5.77952 12.9314C5.8111 12.7534 6.03505 12.7476 6.14702 12.785C6.13267 12.4663 6.12405 12.1045 6.12405 11.6997Z" fill="#FED198"/>
<path fill-rule="evenodd" clip-rule="evenodd" d="M6.12405 11.6997C6.17286 10.2929 8.59893 9.91387 9.59807 10.7953C9.62391 10.8929 9.64114 10.9963 9.64401 11.1054C9.64401 11.9208 9.59807 12.6213 9.52916 13.4367C9.38561 14.3066 9.07266 14.7229 8.41518 15.1134C8.30895 15.1766 7.98452 15.3345 7.65147 15.3345C7.32704 15.3345 6.99399 15.1823 6.88776 15.1192C6.83321 15.0876 6.78153 15.056 6.72985 15.0215C6.52888 14.7689 6.38532 14.4444 6.28771 13.9851C5.91446 14.0827 5.73071 13.1898 5.77952 12.9314C5.8111 12.7534 6.03505 12.7476 6.14702 12.785C6.13267 12.4663 6.12405 12.1045 6.12405 11.6997Z" fill="#FFDEB2"/>
<path fill-rule="evenodd" clip-rule="evenodd" d="M5.64453 12.027C5.64453 12.9658 6.16707 12.9917 6.16707 12.9917L6.12113 11.737C6.10391 11.2288 5.85986 11.1168 5.72779 11.4585C5.67898 11.5848 5.64453 11.7743 5.64453 12.027Z" fill="#C9897B"/>
<path fill-rule="evenodd" clip-rule="evenodd" d="M5.92021 12.874C6.04367 12.9859 6.16712 12.9917 6.16712 12.9917L6.12119 11.737C6.11831 11.6308 6.10396 11.5418 6.08386 11.47C6.01208 11.4528 5.93457 11.5159 5.88001 11.6624C5.83121 11.7887 5.79675 11.9782 5.79675 12.2308C5.79675 12.5266 5.84843 12.7304 5.92021 12.874Z" fill="#C27767"/>
<path fill-rule="evenodd" clip-rule="evenodd" d="M10.023 12.1303C10.023 12.1303 9.8737 11.625 9.64401 11.5877C8.29173 11.358 6.71263 12.3715 5.84269 11.5446C5.62449 11.3351 5.35748 10.7924 5.60726 10.0775C5.60726 10.0775 6.1499 10.5426 7.10597 10.3618C7.4505 10.2957 8.96356 9.83634 9.64976 10.5455C9.9627 10.8671 9.97706 11.114 10.023 11.6997V12.1303Z" fill="#C27767"/>
<path fill-rule="evenodd" clip-rule="evenodd" d="M5.60722 10.0775C5.60722 10.0775 6.14985 10.5426 7.10592 10.3618C7.45045 10.2957 8.96352 9.83634 9.64971 10.5455C9.71861 10.6144 9.8392 10.7465 9.88514 10.8785C9.85068 11.4757 7.29254 11.6193 6.84753 11.6135C6.04936 11.5992 5.3402 11.0738 5.60722 10.0775Z" fill="#C9897B"/>
<path fill-rule="evenodd" clip-rule="evenodd" d="M8.20555 16.9423L7.78925 20.2268H9.23915L8.50989 16.9107H8.39217L8.35198 16.9423H8.20555Z" fill="#ADD2ED"/>
<path fill-rule="evenodd" clip-rule="evenodd" d="M9.99714 12.9945C9.97417 12.0988 10.0833 12.2538 9.68994 11.5016C9.51193 11.1628 9.79329 10.7206 10.089 10.9274C10.5886 11.2805 10.5513 12.8826 9.99714 12.9945Z" fill="#C9897B"/>
<path fill-rule="evenodd" clip-rule="evenodd" d="M9.99712 12.9945C9.97415 12.0988 10.0833 12.2538 9.68991 11.5016C9.63249 11.3896 9.59517 11.1456 9.72149 10.9963C9.72149 10.9963 9.72149 11.2547 9.99425 11.5906C10.267 11.9236 10.1062 12.4978 9.99712 12.9945Z" fill="#C27767"/>
<path fill-rule="evenodd" clip-rule="evenodd" d="M9.28798 16.1843C9.32531 16.2044 9.36263 16.2217 9.4057 16.2331L11.1571 16.7126C11.1571 16.7126 12.0902 16.9882 12.1849 17.8352L12.3888 19.6583C12.4031 19.8076 12.36 19.9426 12.2596 20.0546C12.1591 20.1694 12.0299 20.2268 11.8777 20.2268C9.53202 20.2268 6.77291 20.2268 4.42436 20.2268C4.27506 20.2268 4.14586 20.1694 4.0425 20.0546C3.94202 19.9426 3.89895 19.8076 3.91618 19.6583L4.11715 17.8352C4.2119 16.9882 5.145 16.7126 5.145 16.7126L6.89924 16.2331C6.9423 16.2217 6.97963 16.2044 7.01408 16.1843L7.95005 16.9423H8.35201L9.28798 16.1843Z" fill="#ADD2ED"/>
<path fill-rule="evenodd" clip-rule="evenodd" d="M7.91558 16.9107L7.49353 20.2268H8.77691L8.35486 16.9107H7.91558Z" fill="#FA96A2"/>
<path fill-rule="evenodd" clip-rule="evenodd" d="M8.17111 17.2265L8.48119 20.1349L8.43525 20.2268H8.77691L8.3606 16.9509L8.35773 16.9365L8.35486 16.9107H8.13666L8.13953 16.9423L8.17111 17.2265Z" fill="#E67C89"/>
<path fill-rule="evenodd" clip-rule="evenodd" d="M6.89924 16.2331L5.145 16.7126C5.145 16.7126 4.2119 16.9882 4.11715 17.8352L3.91618 19.6583C3.89895 19.8076 3.94202 19.9426 4.0425 20.0546C4.14586 20.1694 4.27506 20.2268 4.42723 20.2268H8.15103L7.39593 17.8151L6.89924 16.2331Z" fill="#9AA8AD"/>
<path fill-rule="evenodd" clip-rule="evenodd" d="M6.89922 16.2331L5.14499 16.7126C5.14499 16.7126 4.69423 16.8447 4.38989 17.2093C4.49038 17.1634 4.56216 17.1433 4.56216 17.1433C5.38903 16.9165 6.22739 16.7901 7.06575 16.7614L6.89922 16.2331Z" fill="#7D959E"/>
<path fill-rule="evenodd" clip-rule="evenodd" d="M9.40567 16.2331L11.157 16.7126C11.157 16.7126 12.0901 16.9882 12.1849 17.8352L12.3887 19.6583C12.4031 19.8076 12.36 19.9426 12.2595 20.0546C12.159 20.1694 12.0298 20.2268 11.8777 20.2268H8.151L8.90897 17.8151L9.40567 16.2331Z" fill="#9AA8AD"/>
<path fill-rule="evenodd" clip-rule="evenodd" d="M9.4057 16.2331L11.1571 16.7126C11.1571 16.7126 12.0902 16.9882 12.1849 17.8352L12.3888 19.6583C12.4031 19.8076 12.36 19.9426 12.2596 20.0546C12.1591 20.1694 12.0299 20.2268 11.8777 20.2268H11.3466C11.4011 20.1378 11.4212 20.0373 11.4097 19.9282L11.2202 18.2056C11.1312 17.4017 10.2469 17.1433 10.2469 17.1433C9.89665 17.0457 9.54638 16.9681 9.19324 16.9078L9.4057 16.2331Z" fill="#7D959E"/>
<path fill-rule="evenodd" clip-rule="evenodd" d="M9.0956 15.9087L8.35486 16.9107L8.94056 17.7118L9.40568 16.2331C9.36261 16.2217 9.13292 15.9288 9.0956 15.9087Z" fill="#EFF4F7"/>
<path d="M24.2262 11.315C25.5038 12.8826 25.2971 16.2015 24.5621 17.2294L20.0373 17.1634C19.3052 16.1384 18.9405 12.8826 20.221 11.315C21.4987 9.74447 23.3304 10.2699 24.2262 11.315Z" fill="#C9897B"/>
<path d="M21.114 16.6523L20.1321 17.0141C18.4956 17.6256 18.0678 18.4898 18.4094 20.2268H26.0724C26.3422 18.3376 25.768 17.3098 23.431 16.6839C22.4605 16.4657 21.114 16.6523 21.114 16.6523Z" fill="#7D959E"/>
<path d="M18.3032 18.9406C18.2917 19.2449 18.329 19.8134 18.4094 20.2268H25.3259C25.745 16.3709 19.331 16.2532 18.3032 18.9406Z" fill="#9AA8AD"/>
<path d="M20.9819 11.1944C20.6977 11.6767 20.4938 13.1209 20.4938 13.6865C20.4938 14.7574 21.2518 15.9001 22.2079 15.9001C23.1639 15.9001 23.9391 15.033 23.9391 13.9621C23.9391 12.8912 23.9047 12.228 22.9486 12.228C22.5955 12.228 20.9819 12.0385 20.9819 11.1944Z" fill="#FED198"/>
<path d="M20.9819 11.1944C20.6977 11.6767 20.4938 13.1209 20.4938 13.6865C20.4938 14.3267 20.7666 14.9957 21.1915 15.4292C21.3609 15.5096 21.5418 15.5527 21.7284 15.5527C22.6873 15.5527 23.4654 14.6827 23.4654 13.609C23.4654 13.23 23.4826 12.7677 23.4625 12.3256C23.3305 12.2624 23.1639 12.228 22.9486 12.228C22.5955 12.228 20.9819 12.0385 20.9819 11.1944Z" fill="#FFDEB2"/>
<path d="M21.4873 15.6733C21.5102 15.9317 21.4442 16.2934 21.2001 16.569C21.1743 16.5978 21.1456 16.6265 21.114 16.6523L22.228 20.0086L23.431 16.6839C23.385 16.6466 23.342 16.6092 23.3047 16.569C23.0893 16.3307 23.0463 15.9173 23.0664 15.6503C22.8137 15.814 22.5208 15.9001 22.2079 15.9001C21.9495 15.9001 21.7055 15.8168 21.4873 15.6733Z" fill="#FED198"/>
<path fill-rule="evenodd" clip-rule="evenodd" d="M21.6824 18.3635C22.1418 18.4927 22.3916 18.4783 22.8223 18.3635L22.2394 20.0086L21.6824 18.3635Z" fill="#E4EFF7"/>
<path d="M16.8447 22.1332H18.9004" stroke="#6B605D" stroke-width="0.999776" stroke-linecap="round" stroke-linejoin="round"/>
<path fill-rule="evenodd" clip-rule="evenodd" d="M23.4166 16.6724L23.9564 17.1461C24.0712 17.2495 24.0396 17.4246 23.9018 17.4964L23.4999 17.7089L23.7784 18.0103C23.8415 18.0764 23.9334 18.2572 23.7583 18.4381L22.228 20.0086L23.4166 16.6724Z" fill="#698994"/>
<path fill-rule="evenodd" clip-rule="evenodd" d="M21.114 16.6523L20.5771 17.126C20.4593 17.2294 20.4938 17.4045 20.6287 17.4763L21.0307 17.6888L20.7522 17.9902C20.6919 18.0563 20.6029 18.2343 20.7723 18.418L22.2279 20.0086L21.114 16.6523Z" fill="#698994"/>
<path fill-rule="evenodd" clip-rule="evenodd" d="M16.6179 15.4091V16.1355C16.6179 16.3997 16.7499 16.6293 16.9624 16.7585L15.3632 18.0534H14.677L13.0778 16.7585C13.2903 16.6293 13.4224 16.3997 13.4224 16.1355V15.5211C13.5085 15.5785 13.6004 15.6359 13.6922 15.6905C13.8645 15.791 14.4129 16.0436 14.9469 16.0408C15.4924 16.0408 16.0236 15.7824 16.1987 15.679C16.348 15.59 16.4887 15.501 16.6179 15.4091Z" fill="#FED198"/>
<path fill-rule="evenodd" clip-rule="evenodd" d="M11.5562 9.10135C11.6595 6.10393 18.1109 5.83979 18.2142 9.10135C18.2142 9.81625 18.2056 10.445 18.1884 11.002C18.3606 10.8986 18.754 10.8498 18.82 11.2145C18.8975 11.6279 18.6621 13.1496 18.0247 12.9285C17.7893 14.3583 17.2782 15.0416 16.1987 15.679C16.0236 15.7824 15.4924 16.0408 14.9469 16.0408C14.4129 16.0436 13.8645 15.791 13.6922 15.6905C12.7333 15.1249 12.1476 14.4617 11.8375 13.006C11.2001 13.1754 10.8843 11.6509 10.9676 11.2087C11.025 10.9044 11.4069 10.8929 11.5992 10.9589C11.5705 10.4106 11.5562 9.79615 11.5562 9.10135Z" fill="#FED198"/>
<path fill-rule="evenodd" clip-rule="evenodd" d="M11.5562 9.10134C11.6394 6.70398 15.7853 6.05512 17.4907 7.56244C17.5338 7.72609 17.5625 7.90123 17.5682 8.08785C17.5682 9.4832 17.4907 10.6804 17.373 12.07C17.1289 13.5573 16.5949 14.2693 15.4695 14.9354C15.2886 15.0416 14.7345 15.3086 14.1688 15.3115C13.6119 15.3115 13.0405 15.0502 12.8625 14.944C12.7706 14.8895 12.6788 14.832 12.5926 14.7746C12.251 14.3439 12.004 13.7898 11.8375 13.006C11.2001 13.1754 10.8843 11.6509 10.9676 11.2087C11.025 10.9044 11.4069 10.8929 11.5992 10.9589C11.5705 10.4106 11.5562 9.79615 11.5562 9.10134Z" fill="#FFDEB2"/>
<path fill-rule="evenodd" clip-rule="evenodd" d="M10.7407 9.66408C10.7407 11.269 11.6308 11.3092 11.6308 11.3092L11.5532 9.16738C11.5245 8.30031 11.1054 8.10795 10.8814 8.69078C10.7981 8.90898 10.7407 9.23054 10.7407 9.66408Z" fill="#C9897B"/>
<path fill-rule="evenodd" clip-rule="evenodd" d="M11.2059 11.1082C11.4212 11.3006 11.6308 11.3092 11.6308 11.3092L11.5533 9.16738C11.5475 8.9865 11.5246 8.83146 11.4872 8.71087C11.3666 8.68503 11.2346 8.79126 11.1398 9.04105C11.0566 9.25638 10.9991 9.57794 10.9991 10.0143C10.9991 10.5168 11.0881 10.8671 11.2059 11.1082Z" fill="#C27767"/>
<path fill-rule="evenodd" clip-rule="evenodd" d="M18.2142 9.84209C18.2142 9.84209 17.9587 8.97789 17.5653 8.91185C15.257 8.52138 12.5639 10.2527 11.0795 8.8372C10.7063 8.48119 10.2498 7.55383 10.6747 6.33649C10.6747 6.33649 11.6021 7.12891 13.2328 6.8217C13.8243 6.70973 16.4083 5.92305 17.5797 7.13178C18.1108 7.68303 18.1367 8.10508 18.2142 9.10134V9.84209Z" fill="#C27767"/>
<path fill-rule="evenodd" clip-rule="evenodd" d="M10.6747 6.33649C10.6747 6.33649 11.6021 7.12891 13.2328 6.8217C13.8243 6.70973 16.4083 5.92305 17.5797 7.13178C17.6974 7.25524 17.8983 7.47631 17.9816 7.70312C17.9184 8.72236 13.5515 8.96927 12.7936 8.95779C11.4269 8.93482 10.2182 8.03617 10.6747 6.33649Z" fill="#C9897B"/>
<path fill-rule="evenodd" clip-rule="evenodd" d="M15.1134 18.0534L14.3985 23.6635H16.8791L15.6331 18.0017H15.4321L15.3632 18.0534H15.1134Z" fill="#ADD2ED"/>
<path fill-rule="evenodd" clip-rule="evenodd" d="M18.1682 11.3178C18.1309 9.78753 18.3175 10.0488 17.6457 8.76542C17.3442 8.18834 17.8237 7.43037 18.3261 7.78638C19.1817 8.38931 19.1186 11.1255 18.1682 11.3178Z" fill="#C9897B"/>
<path fill-rule="evenodd" clip-rule="evenodd" d="M18.1683 11.3178C18.1309 9.78753 18.3176 10.0488 17.6457 8.76543C17.5452 8.57594 17.485 8.15676 17.7003 7.90123C17.7032 7.9041 17.7003 8.34625 18.1654 8.9176C18.6305 9.48894 18.3578 10.4709 18.1683 11.3178Z" fill="#C27767"/>
<path fill-rule="evenodd" clip-rule="evenodd" d="M16.9624 16.7585C17.0227 16.7959 17.0887 16.8246 17.1605 16.8447L20.1522 17.6629C20.1522 17.6629 21.7456 18.1338 21.9064 19.5808L22.2509 22.6931C22.2797 22.9486 22.205 23.1812 22.0356 23.3707C21.8633 23.563 21.6394 23.6635 21.381 23.6635C17.3758 23.6635 12.6644 23.6635 8.65921 23.6635C8.40081 23.6635 8.17687 23.563 8.0046 23.3707C7.83521 23.1812 7.76056 22.9486 7.78927 22.6931L8.1338 19.5808C8.29458 18.1338 9.88516 17.6629 9.88516 17.6629L12.8797 16.8447C12.9515 16.8246 13.0175 16.7959 13.0778 16.7585L14.677 18.0534H15.3632L16.9624 16.7585Z" fill="#ADD2ED"/>
<path fill-rule="evenodd" clip-rule="evenodd" d="M14.6196 18.0017L13.8989 23.6635H16.0867L15.3661 18.0017H14.6196Z" fill="#FA96A2"/>
<path fill-rule="evenodd" clip-rule="evenodd" d="M15.0502 18.5415L15.5842 23.5085L15.5067 23.6635H16.0867L15.3747 18.0706L15.3718 18.0448L15.366 18.0017H14.9928L14.9985 18.0534L15.0502 18.5415Z" fill="#E67C89"/>
<path fill-rule="evenodd" clip-rule="evenodd" d="M12.8797 16.8447L9.88516 17.6629C9.88516 17.6629 8.29458 18.1338 8.1338 19.5808L7.78927 22.6931C7.76056 22.9486 7.83521 23.1812 8.0046 23.3707C8.17687 23.563 8.40081 23.6635 8.65921 23.6635H15.0187L13.7267 19.5464L12.8797 16.8447Z" fill="#9AA8AD"/>
<path fill-rule="evenodd" clip-rule="evenodd" d="M12.8797 16.8447L9.88513 17.6629C9.88513 17.6629 9.11855 17.8898 8.59314 18.5128C8.77115 18.4324 8.88886 18.3979 8.88886 18.3979C10.3043 18.0103 11.7341 17.795 13.1639 17.7491L12.8797 16.8447Z" fill="#7D959E"/>
<path fill-rule="evenodd" clip-rule="evenodd" d="M17.1605 16.8447L20.1522 17.6629C20.1522 17.6629 21.7456 18.1338 21.9064 19.5808L22.2509 22.6931C22.2797 22.9486 22.205 23.1812 22.0356 23.3707C21.8634 23.563 21.6394 23.6635 21.381 23.6635H15.0187L16.3107 19.5464L17.1605 16.8447Z" fill="#9AA8AD"/>
<path fill-rule="evenodd" clip-rule="evenodd" d="M17.1605 16.8447L20.1521 17.6629C20.1521 17.6629 21.7456 18.1338 21.9064 19.5808L22.2509 22.6931C22.2796 22.9486 22.205 23.1812 22.0356 23.3707C21.8633 23.563 21.6394 23.6635 21.381 23.6635H20.4766C20.5684 23.5113 20.6029 23.3391 20.5828 23.1525L20.2555 20.2096C20.1062 18.843 18.5989 18.3979 18.5989 18.3979C18.0017 18.2343 17.3988 18.1022 16.7987 17.9989L17.1605 16.8447Z" fill="#7D959E"/>
<path fill-rule="evenodd" clip-rule="evenodd" d="M13.408 16.2877L14.6397 18.0017L13.6721 19.3684L12.8797 16.8447C12.9515 16.8246 13.3477 16.325 13.408 16.2877Z" fill="#EFF4F7"/>
<path fill-rule="evenodd" clip-rule="evenodd" d="M16.6322 16.2877L15.3661 18.0017L16.3681 19.3712L17.1605 16.8447C17.0887 16.8246 16.6925 16.325 16.6322 16.2877Z" fill="#EFF4F7"/>
<path d="M9.25069 15.3919V15.8168C9.25069 15.8656 9.26217 15.9116 9.28514 15.9489C9.30524 15.9891 9.33682 16.0207 9.37414 16.0436L9.20475 16.3221C9.11575 16.2676 9.04684 16.1929 8.99803 16.1068C8.95209 16.0207 8.92338 15.9231 8.92338 15.8168V15.3919H9.25069ZM6.93085 16.0436C6.96817 16.0207 6.99975 15.9891 7.01985 15.9489C7.03995 15.9116 7.0543 15.8656 7.0543 15.8168V15.4579H7.37874V15.8168C7.37874 15.9231 7.3529 16.0207 7.30696 16.1068C7.25815 16.1929 7.18637 16.2676 7.10024 16.3221L6.93085 16.0436Z" fill="#6B605D"/>
<path d="M10.2096 12.9371C10.2067 12.9371 10.2039 12.9343 10.201 12.9343C10.1177 12.9027 10.0775 12.8079 10.1091 12.7247C10.1436 12.6385 10.2383 12.5983 10.3216 12.6299C10.3761 12.6529 10.4278 12.6873 10.468 12.7419C10.4996 12.785 10.5254 12.8395 10.5369 12.9055C10.5656 13.052 10.5369 13.3936 10.445 13.6606C10.4106 13.7611 10.3646 13.8559 10.3072 13.9334C10.2383 14.0253 10.1522 14.0884 10.0488 14.1085H10.0459C9.97417 14.4818 9.86219 14.7689 9.69854 15.01C9.51192 15.2828 9.26214 15.4924 8.92622 15.6905C8.85731 15.7307 8.70227 15.8082 8.51565 15.8628L8.50704 15.8656C8.38645 15.9001 8.24864 15.9259 8.10796 15.9259C7.96728 15.9259 7.82946 15.9001 7.70601 15.8656H7.70314C7.51939 15.814 7.36148 15.7364 7.29257 15.6962C6.99398 15.5211 6.74993 15.3287 6.55757 15.0617C6.38244 14.8234 6.25324 14.5334 6.15849 14.1487V14.1459C6.02355 14.12 5.91732 14.0224 5.83693 13.8903C5.76515 13.7784 5.71347 13.6377 5.67615 13.4999L5.67328 13.4912C5.61298 13.2644 5.59576 13.0261 5.61873 12.9027C5.62734 12.8539 5.64457 12.8079 5.67041 12.7735C5.67041 12.7735 5.76515 12.6787 5.77089 12.673C5.84554 12.6242 5.94603 12.6443 5.99484 12.7218C6.04365 12.7964 6.01781 12.8998 5.94316 12.9486C5.94316 12.9515 5.94029 12.9572 5.93742 12.9601C5.92306 13.0462 5.94029 13.2242 5.9891 13.408V13.4137C6.02068 13.5286 6.06087 13.6377 6.11255 13.7209C6.14988 13.7784 6.1872 13.8214 6.22165 13.8272H6.22453C6.23027 13.83 6.23601 13.83 6.24462 13.8272L6.25324 13.8243C6.34224 13.8071 6.42837 13.8616 6.44847 13.9506C6.53173 14.3554 6.65519 14.6454 6.81884 14.8694C6.98249 15.0962 7.19495 15.2627 7.45622 15.4177C7.51077 15.4465 7.6371 15.5067 7.79214 15.5527C7.89263 15.5785 8.00173 15.5986 8.10796 15.5986C8.21419 15.5986 8.32329 15.5785 8.41804 15.5527L8.42378 15.5498C8.57882 15.5067 8.70227 15.4436 8.7597 15.4091C9.05542 15.234 9.27075 15.056 9.42866 14.8263C9.5837 14.5966 9.68419 14.3124 9.75022 13.9219C9.75022 13.9104 9.75309 13.8989 9.75884 13.8875C9.78755 13.8013 9.87942 13.7554 9.96555 13.7841C9.97417 13.7898 9.98278 13.7898 9.98852 13.7898C10.0057 13.787 10.0258 13.7669 10.0488 13.7382C10.0804 13.6922 10.112 13.6291 10.1378 13.5544C10.2125 13.3362 10.2383 13.0721 10.2182 12.963C10.2153 12.9515 10.2125 12.9429 10.2096 12.9371Z" fill="#6B605D"/>
<path d="M5.96326 13.0979C5.91158 13.0749 5.86564 13.0433 5.8197 13.0032L5.81109 12.9945C5.63595 12.8395 5.53547 12.5725 5.49814 12.2911C5.45795 11.9954 5.48379 11.671 5.56131 11.4442C5.46082 11.2834 5.37756 11.068 5.35172 10.8096C5.32875 10.5828 5.35172 10.3216 5.44933 10.0344C5.45795 10.0115 5.46656 9.99138 5.48379 9.97415C5.54121 9.90525 5.64457 9.89664 5.71347 9.95406C5.79099 10.0172 5.89435 10.0746 6.00632 10.1177C6.14127 10.1694 6.28769 10.2067 6.41402 10.2239H6.41976C6.5346 10.2383 6.64371 10.244 6.74707 10.2383C6.85042 10.2354 6.95378 10.2239 7.06576 10.2038L7.07437 10.201C7.19208 10.178 7.27822 10.1608 7.35861 10.1435C7.76343 10.0574 8.12232 9.98277 8.58456 9.99425H8.5903C8.88028 10.0057 9.22481 10.0775 9.50905 10.2354C9.7129 10.3503 9.88804 10.5082 9.99139 10.7149C10.0029 10.7178 10.0144 10.7178 10.0258 10.7206C10.0718 10.7321 10.1206 10.7522 10.1694 10.7838L10.1809 10.7924C10.3704 10.9274 10.4938 11.1829 10.5541 11.4786C10.557 11.4843 10.557 11.4901 10.5599 11.4958C10.6058 11.737 10.6173 12.0098 10.5857 12.2595C10.557 12.5151 10.4824 12.7534 10.3675 12.917C10.2814 13.0405 10.1723 13.1237 10.0373 13.1524C10.0258 13.1553 10.0144 13.1582 10 13.1582C9.911 13.1611 9.83636 13.0893 9.83348 13.0003C9.83348 12.9486 9.83348 12.8941 9.83061 12.8424V12.8395C9.83061 12.7304 9.83061 12.6414 9.83348 12.5639C9.83923 12.2682 9.83923 12.1533 9.64112 11.76C9.63825 11.7571 9.63251 11.7542 9.62677 11.7514H9.62964C9.6239 11.7485 9.62102 11.7485 9.61815 11.7485C9.087 11.6566 8.50704 11.7715 7.95005 11.8806C7.35286 11.9983 6.78152 12.1102 6.29343 11.9753L6.33076 12.9859H6.32789C6.33076 12.9974 6.32789 13.006 6.32789 13.0175C6.31353 13.1065 6.23027 13.1668 6.14127 13.1524C6.07523 13.141 6.01781 13.1237 5.96326 13.0979ZM5.99484 12.7189L5.96039 11.7427C5.95752 11.6537 6.02929 11.5791 6.1183 11.5762C6.14414 11.5762 6.17285 11.582 6.19582 11.5934C6.63222 11.8088 7.24089 11.6882 7.88689 11.5619C8.46972 11.447 9.08126 11.3264 9.66983 11.4269C9.71003 11.4327 9.75022 11.447 9.78755 11.47C9.82487 11.4872 9.85645 11.5131 9.88516 11.5418C9.90239 11.559 9.91388 11.5762 9.92249 11.5934C10.1665 12.0758 10.1637 12.2079 10.1579 12.5667V12.6328C10.2096 12.5208 10.2441 12.3773 10.2641 12.2193C10.29 12.004 10.2814 11.7686 10.2383 11.559L10.2354 11.5446C10.1895 11.3236 10.1091 11.1427 9.99427 11.0594L9.98565 11.0537C9.97417 11.0451 9.96268 11.0422 9.9512 11.0393C9.93971 11.0365 9.9311 11.0365 9.92249 11.0393C9.8421 11.0566 9.75884 11.0106 9.733 10.9331C9.66983 10.7522 9.52628 10.6173 9.35114 10.5197C9.11571 10.3905 8.82573 10.3273 8.57882 10.3187C8.1539 10.3101 7.81224 10.3818 7.42464 10.4622C7.32415 10.4852 7.21792 10.5053 7.13753 10.5225L7.12031 10.5254C6.99685 10.5455 6.87626 10.5599 6.75855 10.5656C6.63222 10.5685 6.50876 10.5627 6.37957 10.5484L6.36808 10.5455C6.22166 10.5254 6.04939 10.4823 5.88861 10.4192C5.82545 10.3962 5.76228 10.3675 5.70486 10.3359C5.67041 10.4967 5.66179 10.646 5.67615 10.7781C5.69912 11.0135 5.78238 11.203 5.87425 11.3293C5.90871 11.3781 5.91445 11.4413 5.89148 11.493L5.88574 11.5044L5.88287 11.5102L5.88 11.5188L5.87713 11.5245C5.81109 11.7054 5.78525 11.9868 5.8197 12.2481C5.84554 12.4375 5.90297 12.6127 5.99484 12.7189Z" fill="#6B605D"/>
<path d="M8.42954 18.7884L8.21134 17.0744H8.05917L7.84097 18.7913L7.51941 18.7511L7.75484 16.8906L7.77494 16.7471H7.91562H8.3549H8.49845L8.51568 16.8906L8.71665 18.464C8.61616 18.5587 8.51855 18.6678 8.42954 18.7884Z" fill="#6B605D"/>
<path d="M9.22483 16.3308C9.14157 16.2963 9.10425 16.2016 9.1387 16.1183C9.17602 16.035 9.27077 15.9977 9.35403 16.035L9.45739 16.0781L11.2001 16.5547L11.2059 16.5576C11.2088 16.5576 11.7657 16.7212 12.1045 17.1863L11.7629 17.2811C11.4901 16.9796 11.1111 16.8676 11.1111 16.8676L9.36265 16.391C9.35403 16.3882 9.34829 16.3853 9.33968 16.3824L9.22483 16.3308ZM7.99314 20.3905H4.42437C4.32963 20.3905 4.23488 20.3704 4.14875 20.333C4.06549 20.2929 3.98797 20.2383 3.92193 20.1637C3.8559 20.0919 3.80996 20.0086 3.78125 19.9196C3.75254 19.8306 3.74393 19.7359 3.75541 19.6382L3.95639 17.818C4.06262 16.8619 5.09621 16.5576 5.09621 16.5576L5.11056 16.5518L6.85619 16.0752C6.87054 16.0724 6.88203 16.0666 6.89351 16.0637C6.90786 16.058 6.91935 16.0523 6.92796 16.0436C7.00548 15.9977 7.10597 16.0207 7.15191 16.0982C7.20072 16.1728 7.17775 16.2733 7.10023 16.3221C7.07726 16.3365 7.04855 16.3508 7.02271 16.3623C6.99687 16.3738 6.96816 16.3824 6.94232 16.391L5.19383 16.8676C5.19095 16.8676 4.36121 17.1117 4.28082 17.8524L4.07697 19.6756C4.07123 19.7272 4.07697 19.7761 4.09133 19.822C4.10568 19.8651 4.13152 19.9081 4.16598 19.9483C4.20043 19.9856 4.24062 20.0144 4.28369 20.0345C4.32389 20.0546 4.37269 20.0632 4.42437 20.0632H8.03046L7.99314 20.3905Z" fill="#6B605D"/>
<path d="M7.3385 15.8139L8.06201 16.816L8.12805 16.9107L8.06201 17.0055L7.49641 17.8036L7.30405 18.0735L7.20643 17.7605L6.74418 16.2819L6.6925 16.1212L6.85616 16.0752C6.87913 16.0695 6.90497 16.0006 6.96526 15.9288C7.03129 15.857 7.08584 15.791 7.1203 15.768L7.2495 15.6876L7.3385 15.8139ZM7.72897 16.9107L7.19207 16.1642C7.15762 16.2044 7.1203 16.2475 7.08584 16.2819L7.41889 17.35L7.72897 16.9107Z" fill="#6B605D"/>
<path d="M9.11 16.1642L8.55588 16.9107L8.88319 17.3557L9.2191 16.2819C9.18178 16.2446 9.14446 16.2044 9.11 16.1642ZM8.22571 16.8131L8.96645 15.8111L9.05545 15.6905L9.18178 15.768C9.2191 15.791 9.27366 15.857 9.33682 15.9288C9.39998 16.0006 9.42295 16.0695 9.44592 16.0752L9.56938 16.1097V16.2331V16.2561L9.56076 16.2819L9.09565 17.7605L9.0009 18.0678L8.80854 17.8094L8.22284 17.0054L8.15393 16.9107L8.22571 16.8131Z" fill="#6B605D"/>
<path d="M7.99603 20.178L8.02761 20.0775L8.01613 20.1837L7.99603 20.178ZM8.43531 18.7827L8.78558 17.6629L9.09566 17.7606L8.93488 18.2773C8.75687 18.4123 8.58173 18.5788 8.43531 18.7827Z" fill="#6B605D"/>
<path d="M7.99604 20.2756L7.20074 17.7405L7.51369 17.6428L8.10227 19.5205C8.08504 19.5866 8.07356 19.6555 8.06781 19.7301L8.00752 20.2728L7.99604 20.2756Z" fill="#6B605D"/>
<path d="M19.7703 17.0342C19.4086 16.3623 19.1674 15.1651 19.2162 13.9736C19.2593 12.9486 19.5148 11.9208 20.0919 11.2145C20.224 11.0537 20.3618 10.9101 20.5025 10.7895C21.0738 10.3015 21.7141 10.1263 22.3256 10.1694C22.9314 10.2096 23.5114 10.4651 23.965 10.8355C24.1057 10.9503 24.2349 11.0767 24.3497 11.2087L24.3555 11.2173C24.9326 11.9294 25.2168 12.9773 25.2915 14.0195C25.3776 15.2139 25.1823 16.4083 24.8378 17.0858C24.7459 17.037 24.6483 16.9882 24.545 16.9423C24.8694 16.3193 25.0474 15.1852 24.967 14.0396C24.8981 13.0548 24.634 12.0729 24.0999 11.4154C23.9966 11.2977 23.8817 11.1858 23.7583 11.0853C23.3535 10.7551 22.8395 10.5283 22.3055 10.4909C21.7715 10.4536 21.2145 10.6058 20.7149 11.0336C20.5886 11.1427 20.4652 11.269 20.3474 11.4154C19.8192 12.0643 19.5837 13.0232 19.5435 13.9851C19.4947 15.1421 19.7273 16.2934 20.0718 16.9136C19.9656 16.9509 19.8651 16.994 19.7703 17.0342Z" fill="#6B605D"/>
<path d="M21.1427 16.7671L20.1723 17.1232L20.1665 17.126C19.799 17.2638 19.4976 17.4131 19.2535 17.5825L18.9664 17.505C19.2507 17.2753 19.621 17.0801 20.0833 16.9078L20.0919 16.905L21.0709 16.5432C21.0796 16.5403 21.0882 16.5375 21.0968 16.5375C21.0996 16.5375 21.1513 16.5288 21.2403 16.5202C21.2288 16.5375 21.2145 16.5547 21.2001 16.569C21.1743 16.5978 21.1456 16.6265 21.114 16.6523L21.1513 16.7671H21.1427ZM23.2759 16.5346C23.3334 16.5432 23.3908 16.5547 23.4482 16.5662C23.4511 16.5662 23.4568 16.569 23.4597 16.569C24.6569 16.8906 25.4063 17.3184 25.8255 17.9127C26.2446 18.5128 26.325 19.265 26.1872 20.2354C26.1843 20.2957 26.1327 20.3445 26.0724 20.3445H21.9093L21.8835 20.1091H25.969C26.081 19.242 26.0006 18.5731 25.6331 18.0477C25.2484 17.5021 24.5421 17.1002 23.3994 16.7959H23.3965L23.3908 16.793L23.431 16.6839C23.385 16.6466 23.342 16.6092 23.3046 16.569C23.296 16.5576 23.2845 16.5461 23.2759 16.5346Z" fill="#6B605D"/>
<path d="M21.3236 15.6876C21.3178 15.5957 21.3839 15.5182 21.4729 15.5096C21.5619 15.5039 21.6423 15.5699 21.648 15.6589C21.6624 15.8197 21.648 16.0149 21.5848 16.2102C21.5332 16.3709 21.447 16.5346 21.3207 16.6781C21.2604 16.7442 21.157 16.7528 21.091 16.6925C21.025 16.6322 21.0164 16.5289 21.0767 16.4628C21.1714 16.3566 21.2346 16.2331 21.2748 16.1097C21.3236 15.9604 21.3351 15.8082 21.3236 15.6876ZM23.5286 16.5518C23.6003 16.6064 23.6147 16.7097 23.5601 16.7815C23.5056 16.8533 23.4051 16.8676 23.3333 16.8131C23.3046 16.793 23.2788 16.77 23.2558 16.7499C23.2328 16.7298 23.2099 16.704 23.184 16.6781C23.0721 16.5547 22.9974 16.391 22.9543 16.2245C22.9027 16.0178 22.8912 15.8025 22.9027 15.6388C22.9084 15.5498 22.9888 15.4809 23.0778 15.4866C23.1668 15.4953 23.2357 15.5728 23.2271 15.6618C23.2185 15.7967 23.2271 15.9747 23.2702 16.1413C23.3018 16.2618 23.3506 16.3767 23.4252 16.4599C23.4396 16.4743 23.4539 16.4915 23.474 16.5059C23.4912 16.5231 23.5085 16.5375 23.5286 16.5518Z" fill="#6B605D"/>
<path d="M21.6394 18.5214C21.5533 18.4955 21.5016 18.4065 21.5246 18.3204C21.5504 18.2343 21.6394 18.1826 21.7255 18.2056C21.9409 18.2659 22.1045 18.2946 22.2624 18.2917C22.4175 18.2917 22.5783 18.2601 22.7821 18.2056C22.8682 18.1826 22.9572 18.2343 22.9802 18.3204C23.0032 18.4094 22.9515 18.4984 22.8654 18.5214C22.6385 18.5817 22.4548 18.6161 22.2653 18.619C22.0758 18.619 21.8834 18.5903 21.6394 18.5214Z" fill="#6B605D"/>
<path d="M23.5257 16.549L24.0626 17.0256C24.0684 17.0284 24.0712 17.0313 24.0741 17.0342C24.1057 17.0629 24.1286 17.0973 24.1487 17.1318C24.1832 17.2007 24.1947 17.2782 24.1861 17.35C24.1746 17.4218 24.143 17.4935 24.0942 17.5481C24.0913 17.5538 24.0856 17.5567 24.0827 17.5596C24.054 17.5912 24.0195 17.6199 23.9794 17.64L23.764 17.7519L23.899 17.9012C23.9018 17.9041 23.9076 17.907 23.9104 17.9127C23.965 17.9759 24.0282 18.0965 24.0224 18.2343C24.0167 18.3376 23.9765 18.4467 23.876 18.553L22.3457 20.1235C22.2825 20.1866 22.1792 20.1895 22.116 20.1263C22.0672 20.0804 22.0557 20.0115 22.0758 19.9541L23.2645 16.6179C23.2932 16.5346 23.3879 16.4887 23.4712 16.5202C23.4913 16.526 23.5085 16.5375 23.5257 16.5518V16.549ZM23.8473 17.2696L23.4884 16.9538L22.6328 19.3626L23.6434 18.3262C23.6808 18.286 23.6951 18.2486 23.698 18.2199C23.698 18.1797 23.6808 18.1453 23.6664 18.1252L23.6607 18.1194L23.3822 17.8208V17.818C23.3707 17.8094 23.3649 17.7979 23.3563 17.7835C23.3161 17.7031 23.3448 17.6055 23.4252 17.5653L23.8272 17.3529C23.8329 17.3471 23.8387 17.3442 23.8444 17.3385L23.8473 17.3328C23.8559 17.3241 23.8616 17.3155 23.8616 17.3041C23.8645 17.2983 23.8616 17.2897 23.8588 17.284C23.8588 17.2782 23.8559 17.2753 23.853 17.2725L23.8473 17.2696Z" fill="#6B605D"/>
<path d="M21.0393 16.9366L20.6833 17.2495L20.6804 17.2524C20.6776 17.2552 20.6747 17.2581 20.6718 17.261C20.669 17.2696 20.669 17.2782 20.669 17.284C20.669 17.2954 20.6747 17.3069 20.6833 17.3155C20.6891 17.3213 20.6948 17.327 20.7063 17.3328L21.1054 17.5452C21.1858 17.5854 21.2173 17.683 21.1743 17.7634C21.1685 17.7778 21.1599 17.7893 21.1513 17.7979H21.1484V17.8007L20.8728 18.0993C20.8585 18.1166 20.8412 18.1453 20.8384 18.1826C20.7379 18.1137 20.6403 18.0563 20.5512 18.0103C20.5742 17.9529 20.6058 17.9098 20.6316 17.8811L20.7666 17.7318L20.5541 17.6199C20.5082 17.5969 20.4709 17.5653 20.4393 17.528C20.3876 17.4706 20.356 17.4017 20.3474 17.3299C20.3359 17.2552 20.3474 17.1806 20.3847 17.1117C20.402 17.0772 20.4278 17.0457 20.4565 17.0141C20.4594 17.0112 20.4651 17.0083 20.468 17.0055L21.0078 16.5317C21.0221 16.5174 21.0422 16.5059 21.0623 16.4973C21.1484 16.4714 21.2403 16.5174 21.269 16.6006L22.383 19.9569C22.4031 20.0172 22.3859 20.0833 22.3371 20.1292C22.271 20.1895 22.1677 20.1838 22.1074 20.1177L21.8519 19.8392L21.8404 19.7301C21.8203 19.5349 21.7715 19.3569 21.7054 19.1961L21.8346 19.3368L21.0393 16.9366Z" fill="#6B605D"/>
<path d="M20.9705 11.6566C20.9159 11.8317 20.8671 12.0385 20.8269 12.2538C20.7207 12.7907 20.6575 13.3764 20.6575 13.6865C20.6575 14.2033 20.847 14.743 21.1542 15.1392C21.4327 15.4953 21.8031 15.7364 22.2079 15.7364C22.6386 15.7364 23.029 15.5412 23.3104 15.2254C23.5975 14.9038 23.7755 14.4559 23.7755 13.9621C23.7755 13.4453 23.7669 13.029 23.652 12.7591C23.5516 12.5237 23.3506 12.3916 22.9486 12.3916C22.7161 12.3916 21.961 12.3112 21.4298 12.0327C21.2403 11.9351 21.0796 11.8117 20.9705 11.6566ZM20.5053 12.1906C20.5915 11.76 20.7034 11.3551 20.8355 11.1255C20.8614 11.0709 20.9188 11.0307 20.9819 11.0307C21.0738 11.0307 21.1456 11.1054 21.1456 11.1944C21.1456 11.4355 21.3322 11.6135 21.5791 11.7456C22.0557 11.9954 22.739 12.0672 22.9486 12.0672C23.5056 12.0672 23.7985 12.2682 23.9535 12.6299C24.0913 12.9601 24.1028 13.408 24.1028 13.9621C24.1028 14.5392 23.8932 15.0617 23.5516 15.4407C23.2099 15.8254 22.7333 16.0637 22.2079 16.0637C21.694 16.0637 21.2346 15.7709 20.8987 15.3373C20.5484 14.8866 20.3302 14.275 20.3302 13.6865C20.3302 13.3592 20.3962 12.7476 20.5053 12.1906Z" fill="#6B605D"/>
<path d="M16.7816 15.4091V16.2877H16.4542V15.4091H16.7816ZM13.2587 16.2877V15.5211H13.586V16.2877H13.2587Z" fill="#6B605D"/>
<path d="M10.5513 6.23026C10.6087 6.16135 10.712 6.15274 10.781 6.21016C10.9245 6.33075 11.114 6.43123 11.315 6.50875C11.559 6.6035 11.826 6.66666 12.05 6.70112C12.2509 6.72409 12.4404 6.7327 12.6271 6.72696C12.8108 6.71834 13.006 6.69537 13.2013 6.66092C13.3908 6.6236 13.5429 6.59202 13.6894 6.56043C14.3756 6.41688 14.9871 6.28768 15.7652 6.30491C16.2446 6.325 16.816 6.44559 17.2811 6.70686C17.6314 6.89922 17.9242 7.1691 18.0879 7.53086C18.1223 7.53373 18.1568 7.5366 18.1912 7.54522C18.263 7.56244 18.3463 7.60264 18.4209 7.65145C18.7195 7.86391 18.9176 8.28883 19.0152 8.77691C19.0956 9.17887 19.11 9.63537 19.064 10.0459C19.0124 10.468 18.8946 10.8556 18.708 11.1197C18.576 11.3063 18.4066 11.4355 18.2027 11.4757C18.1137 11.493 18.0276 11.4355 18.0104 11.3494C17.9931 11.2604 18.0505 11.1743 18.1395 11.157C18.2544 11.1341 18.3578 11.0537 18.4439 10.9302C18.5961 10.7149 18.6965 10.379 18.7396 10.0057V10.0029C18.7855 9.62101 18.7712 9.20758 18.6965 8.84008C18.6133 8.42664 18.4582 8.07637 18.2314 7.91846L18.2228 7.90984C18.1884 7.88688 18.151 7.87252 18.1166 7.86391C18.0821 7.85529 18.0477 7.85529 18.0161 7.86391C17.9357 7.88113 17.8553 7.8352 17.8266 7.75768C17.7089 7.41889 17.4447 7.1691 17.1232 6.9911C16.704 6.75854 16.1901 6.64944 15.7537 6.63221H15.7508C15.0101 6.61498 14.4215 6.73844 13.7554 6.87912C13.586 6.91358 13.4137 6.9509 13.2644 6.97961L13.2501 6.98248C13.0376 7.01981 12.8366 7.04278 12.6357 7.05139C12.429 7.06 12.2251 7.05139 12.0098 7.02268H11.9954C11.7514 6.98535 11.4643 6.91645 11.1973 6.81309C11.0451 6.7528 10.8958 6.68102 10.7637 6.60063C10.669 6.94516 10.6518 7.26385 10.6776 7.54235C10.7207 7.96727 10.8728 8.30893 11.0393 8.53861C11.0738 8.59029 11.0767 8.65633 11.0508 8.71088L11.0422 8.72811L11.0336 8.75107L11.0307 8.75394C10.9073 9.07838 10.8613 9.58656 10.9245 10.0545C10.9791 10.4421 11.1025 10.7953 11.3178 10.9877L11.3236 10.9934C11.3753 11.0365 11.4241 11.0709 11.4758 11.0968C11.5303 11.1226 11.5877 11.1398 11.6566 11.1513C11.7456 11.1628 11.8059 11.246 11.7916 11.3351C11.7772 11.4241 11.694 11.4843 11.605 11.47C11.5045 11.4556 11.4155 11.4298 11.3322 11.3896C11.2547 11.3494 11.1829 11.3006 11.1083 11.2374L11.0996 11.2288C10.8211 10.9819 10.6661 10.5541 10.6029 10.1005C10.534 9.58656 10.5857 9.0267 10.7207 8.65346C10.5513 8.38932 10.3991 8.02182 10.356 7.57393C10.3187 7.19782 10.3876 6.70399 10.5513 6.23026Z" fill="#6B605D"/>
<path d="M15.6791 21.0767L15.2312 18.1769L14.7144 18.2257L14.3641 21.0824L14.0397 21.0422L14.4072 18.0563L14.4244 17.9271L14.5536 17.9156L15.3518 17.8409L15.5039 17.8266L15.5269 17.9759L16.0006 21.025L15.6791 21.0767Z" fill="#6B605D"/>
<path d="M16.9165 16.6035C16.9509 16.592 16.9911 16.5949 17.0256 16.6092L17.2122 16.6925L20.1953 17.505L20.2039 17.5079C20.2757 17.5309 21.9007 18.0419 22.0701 19.5636L22.4146 22.673C22.4318 22.8252 22.4175 22.9687 22.3744 23.1037L22.3715 23.1065H22.3744C22.3285 23.2415 22.2567 23.3678 22.1562 23.4798C22.0529 23.5946 21.938 23.6807 21.8059 23.7382C21.6767 23.7956 21.5332 23.8272 21.381 23.8272H8.65923C8.50706 23.8272 8.36351 23.7956 8.23431 23.7382C8.10224 23.6807 7.98739 23.5946 7.88403 23.4798C7.78355 23.3678 7.7089 23.2415 7.66583 23.1065V23.0979C7.62277 22.963 7.60841 22.8223 7.62564 22.673L7.97017 19.5636C8.14243 18.0075 9.8335 17.5079 9.83925 17.5079L9.84499 17.505L12.8395 16.6896V16.6868C12.8682 16.6782 12.8941 16.6695 12.9199 16.6609C12.9429 16.6494 12.9687 16.6351 12.9946 16.6207C13.0348 16.5978 13.0807 16.592 13.1238 16.6035C13.0175 16.7241 12.9142 16.8361 12.8797 16.8447L12.9285 16.9997L12.9228 17.0026L9.93112 17.818C9.85647 17.8409 8.44103 18.2917 8.2946 19.5981L7.95007 22.7103C7.93859 22.8137 7.9472 22.9113 7.97304 23.0003L7.97591 23.006C8.00749 23.0979 8.0563 23.184 8.12808 23.2644C8.19698 23.342 8.27737 23.4022 8.36638 23.4424C8.45251 23.4798 8.55013 23.4999 8.65923 23.4999H21.381C21.4901 23.4999 21.5877 23.4798 21.6739 23.4424C21.7629 23.4022 21.8433 23.342 21.9122 23.2644C21.9839 23.184 22.0328 23.0979 22.0643 23.006C22.093 22.9142 22.1017 22.8165 22.0902 22.7103L21.7456 19.5981C21.5992 18.2917 20.1838 17.8409 20.1091 17.818L17.1175 17.0026L17.1117 16.9997L17.1605 16.8447C17.1261 16.8361 17.0227 16.7241 16.9165 16.6035Z" fill="#6B605D"/>
<path d="M13.54 16.1929L14.7717 17.907L14.8406 18.0017L14.7717 18.0965L13.8042 19.4631L13.6147 19.7301L13.5171 19.4172L12.7247 16.8935L12.6758 16.7327L12.8395 16.6868C12.8424 16.6868 12.9687 16.5346 13.0835 16.3997C13.184 16.2819 13.2759 16.1786 13.3218 16.1499L13.451 16.0724L13.54 16.1929ZM14.4416 18.0017L13.3907 16.5432L13.3305 16.6121C13.2443 16.7126 13.1496 16.8217 13.0692 16.8992L13.7295 19.0066L14.4416 18.0017Z" fill="#6B605D"/>
<path d="M16.6495 16.5432L15.5699 18.0017L16.3078 19.0152L16.971 16.8992C16.8906 16.8217 16.7959 16.7126 16.7097 16.6121L16.6495 16.5432ZM15.2369 17.9041L16.503 16.1929L16.592 16.0724L16.7184 16.1499C16.7643 16.1786 16.8562 16.2819 16.9567 16.3997C17.0715 16.5346 17.1978 16.6868 17.2007 16.6868L17.3213 16.7212V16.8447V16.8705L17.3155 16.8935L16.5231 19.42L16.4255 19.7273L16.236 19.466L15.2369 18.0965L15.1651 18.0017L15.2369 17.9041Z" fill="#6B605D"/>
<path d="M14.8636 23.6147L16.2102 19.3224L16.5231 19.42L15.1766 23.7123L14.8636 23.6147Z" fill="#6B605D"/>
<path d="M14.8636 23.7123L13.5056 19.3827L13.8186 19.288L15.1766 23.6147L14.8636 23.7123Z" fill="#6B605D"/>
<path d="M18.6936 10.8068C18.7654 10.8384 18.8286 10.8843 18.8803 10.9532C18.9291 11.0135 18.9635 11.0881 18.9808 11.1858C19.0238 11.4212 18.9779 11.9782 18.8257 12.4146C18.7712 12.5782 18.6994 12.7304 18.6104 12.8481C18.507 12.9831 18.3836 13.0778 18.2343 13.1065C18.2113 13.1094 18.1855 13.1123 18.1596 13.1123C18.0362 13.7726 17.8467 14.2751 17.5624 14.6914C17.2552 15.1421 16.8418 15.4895 16.2819 15.8197C16.17 15.8857 15.9173 16.0121 15.6072 16.1011C15.4062 16.1614 15.1794 16.2044 14.9469 16.2044C14.7201 16.2044 14.4904 16.1614 14.2865 16.1068C13.9793 16.0207 13.7209 15.8943 13.6118 15.8312C13.1122 15.5383 12.7103 15.2168 12.3887 14.7775C12.0901 14.3669 11.8691 13.8616 11.7112 13.1812C11.6882 13.1783 11.6681 13.1754 11.648 13.1726C11.4499 13.1352 11.2891 12.9888 11.1628 12.785C11.0508 12.6041 10.9647 12.3773 10.9015 12.1447V12.139C10.8039 11.7657 10.7694 11.3781 10.8068 11.18C10.8211 11.1111 10.8441 11.0508 10.8785 10.9991C10.9159 10.9417 10.9618 10.8987 11.0164 10.8613C11.0881 10.8154 11.18 10.8326 11.2317 10.8958C11.246 10.913 11.2604 10.9302 11.2748 10.9446C11.2891 10.9618 11.3035 10.9733 11.3149 10.9848C11.3638 11.0279 11.4126 11.0623 11.4614 11.0881L11.3953 9.21045V9.19897V9.17026C11.3953 9.08125 11.4671 9.00948 11.5561 9.00948C11.582 9.00948 11.6078 9.01522 11.6279 9.02383C12.4117 9.41143 13.4711 9.20184 14.5909 8.98077C15.5785 8.7884 16.6121 8.58456 17.594 8.75108C17.6514 8.75969 17.706 8.77979 17.7577 8.81137C17.8093 8.84008 17.8553 8.87741 17.8984 8.9176C17.9127 8.93196 17.9242 8.94631 17.9328 8.96067C18.3434 9.77032 18.3405 9.98852 18.3319 10.5857C18.329 10.7178 18.3261 10.8671 18.329 11.0479V11.0594C18.3836 11.0106 18.4352 10.9475 18.4812 10.8699C18.5271 10.7982 18.619 10.7695 18.6936 10.8068ZM18.6592 11.2432C18.6563 11.226 18.6534 11.2116 18.6477 11.1972C18.6075 11.2461 18.5644 11.2891 18.5156 11.3264C18.4266 11.3982 18.3233 11.4499 18.2113 11.4729C18.1998 11.4757 18.1883 11.4786 18.174 11.4786C18.085 11.4815 18.0103 11.4097 18.0075 11.3207C18.0075 11.2403 18.0046 11.1571 18.0046 11.0738L18.0017 11.0537V11.0508C18.0017 10.8671 18.0046 10.712 18.0046 10.58C18.0132 10.0488 18.0189 9.85071 17.6543 9.1358C17.6342 9.11858 17.617 9.10422 17.5969 9.09274C17.5797 9.08125 17.5596 9.07551 17.5395 9.07264C16.615 8.91473 15.613 9.11284 14.654 9.30233C13.5831 9.51192 12.5667 9.71289 11.7284 9.41717L11.7944 11.3063C11.7944 11.315 11.7915 11.3264 11.7915 11.3351C11.7772 11.4241 11.6939 11.4844 11.6049 11.47C11.5044 11.4556 11.4154 11.4298 11.3322 11.3896C11.2604 11.3523 11.1915 11.3063 11.1255 11.2518C11.0996 11.4154 11.1312 11.7341 11.2173 12.0557V12.0614C11.2719 12.2653 11.3465 12.4634 11.4413 12.6156C11.5217 12.7448 11.6107 12.8338 11.7054 12.8539C11.7313 12.8567 11.76 12.8567 11.7915 12.8481H11.7944L11.803 12.8453C11.892 12.828 11.9782 12.8826 11.9983 12.9716C12.1476 13.6779 12.36 14.186 12.6529 14.5851C12.9429 14.9842 13.3132 15.2771 13.7755 15.5498C13.8702 15.6072 14.097 15.7135 14.3755 15.791C14.5535 15.8427 14.7516 15.88 14.9469 15.88C15.145 15.8771 15.3402 15.8398 15.5182 15.791C15.7938 15.7106 16.0149 15.5986 16.1154 15.5383C16.6351 15.2311 17.0169 14.9153 17.2954 14.5076C17.5739 14.0999 17.7519 13.5917 17.8639 12.9027L17.8725 12.8768C17.9012 12.7907 17.9931 12.7476 18.0792 12.7763C18.1137 12.7878 18.1481 12.7907 18.1768 12.785C18.2371 12.7735 18.2946 12.7247 18.3491 12.6529C18.4151 12.5668 18.4726 12.4462 18.5185 12.3112C18.6534 11.9208 18.6965 11.4384 18.6592 11.2432Z" fill="#6B605D"/>
</g>
<defs>
<clipPath id="clip0_1406_1603">
<rect width="30" height="30" fill="white"/>
</clipPath>
</defs>
</svg>
