<svg width="27" height="28" viewBox="0 0 27 28" fill="none" xmlns="http://www.w3.org/2000/svg">
<path d="M16.9248 25.6263V18.8013C16.9248 18.4997 16.805 18.2103 16.5917 17.997C16.3784 17.7837 16.089 17.6638 15.7874 17.6638H11.2374C10.9357 17.6638 10.6464 17.7837 10.4331 17.997C10.2198 18.2103 10.0999 18.4997 10.0999 18.8013V25.6263C10.0999 25.9279 9.98007 26.2173 9.76675 26.4306C9.55343 26.6439 9.2641 26.7638 8.96242 26.7638H2.13749C1.83581 26.7638 1.54648 26.6439 1.33316 26.4306C1.11984 26.2173 1 25.9279 1 25.6263V12.4741C1.00255 12.3166 1.03657 12.1613 1.10006 12.0172C1.16355 11.8732 1.25522 11.7433 1.36968 11.6352L12.7446 1.29823C12.9543 1.10639 13.2282 1 13.5124 1C13.7966 1 14.0705 1.10639 14.2802 1.29823L25.6551 11.6352C25.7695 11.7433 25.8612 11.8732 25.9247 12.0172C25.9882 12.1613 26.0222 12.3166 26.0247 12.4741V25.6263C26.0247 25.9279 25.9049 26.2173 25.6916 26.4306C25.4783 26.6439 25.1889 26.7638 24.8873 26.7638H18.0623C17.7606 26.7638 17.4713 26.6439 17.258 26.4306C17.0447 26.2173 16.9248 25.9279 16.9248 25.6263Z" stroke="black" stroke-linecap="round" stroke-linejoin="round"/>
</svg>
