<svg width="26" height="27" viewBox="0 0 26 27" fill="none" xmlns="http://www.w3.org/2000/svg">
<g clip-path="url(#clip0_1406_7389)">
<path d="M21.3027 26.7638H4.69214C3.06714 26.7587 1.7519 25.4434 1.74683 23.8184V22.5184C1.74683 19.3395 3.08237 16.3079 5.43354 14.17C6.41362 13.2813 7.87104 13.1595 8.98315 13.8755C10.146 14.622 11.5324 15.0181 13 15.0181C14.4675 15.0181 15.8539 14.622 17.0167 13.8755C18.1289 13.1595 19.5863 13.2813 20.5664 14.17C22.9175 16.3079 24.2582 19.3395 24.2531 22.5184V23.8184C24.248 25.4485 22.9277 26.7638 21.3027 26.7638ZM7.39878 14.4239C6.92143 14.4239 6.4644 14.6016 6.11401 14.9216C3.97612 16.8665 2.75737 19.629 2.75737 22.5184V23.8184C2.76245 24.8849 3.62065 25.7431 4.68706 25.7481H21.2976C22.364 25.7481 23.2273 24.8849 23.2273 23.8184V22.5184C23.2273 19.629 22.0085 16.8716 19.8707 14.9216C19.2308 14.3427 18.2812 14.2614 17.555 14.7286C16.2296 15.5817 14.6503 16.0337 12.9898 16.0337C11.3292 16.0337 9.74995 15.5817 8.42456 14.7286C8.12495 14.5306 7.7644 14.4239 7.39878 14.4239Z" fill="black"/>
<path d="M13 13.8653C9.38438 13.8602 6.4543 10.9302 6.44922 7.31454C6.44922 3.704 9.38438 0.763763 13 0.763763C16.6156 0.768842 19.5457 3.69892 19.5508 7.31454C19.5457 10.9251 16.6105 13.8653 13 13.8653ZM13 1.78447C9.94297 1.78447 7.46484 4.26259 7.46484 7.31962C7.46484 10.3767 9.94297 12.8548 13 12.8548C16.057 12.8548 18.5352 10.3767 18.5352 7.31962C18.5301 4.26259 16.057 1.78447 13 1.78447Z" fill="black"/>
</g>
<defs>
<clipPath id="clip0_1406_7389">
<rect width="26" height="26" fill="white" transform="translate(0 0.763763)"/>
</clipPath>
</defs>
</svg>
