<svg width="20" height="20" viewBox="0 0 20 20" fill="none" xmlns="http://www.w3.org/2000/svg">
<path d="M20 19.0237C20 19.2169 19.9428 19.4057 19.8355 19.5664C19.7282 19.727 19.5756 19.8522 19.3972 19.9261C19.2187 20 19.0223 20.0194 18.8329 19.9817C18.6434 19.944 18.4694 19.8509 18.3328 19.7143L0.286064 1.66758C0.1029 1.48442 -8.20221e-07 1.236 -8.31543e-07 0.976963C-8.42866e-07 0.71793 0.1029 0.469507 0.286064 0.286343C0.469228 0.103178 0.717651 0.000276534 0.976684 0.000276523C1.23572 0.000276512 1.48414 0.103178 1.6673 0.286343L19.7141 18.3331C19.8049 18.4237 19.8769 18.5314 19.9259 18.6499C19.975 18.7684 20.0002 18.8954 20 19.0237Z" fill="black"/>
<path d="M20 0.976955C20.0002 1.10523 19.975 1.23227 19.9259 1.35079C19.8769 1.46931 19.8049 1.57696 19.7141 1.66757L1.66731 19.7143C1.48414 19.8975 1.23572 20.0004 0.976685 20.0004C0.717652 20.0004 0.469228 19.8975 0.286064 19.7143C0.1029 19.5312 -3.13696e-08 19.2827 -4.26923e-08 19.0237C-5.40149e-08 18.7647 0.1029 18.5163 0.286064 18.3331L18.3328 0.286332C18.4694 0.149722 18.6434 0.0566856 18.8329 0.0189887C19.0223 -0.0187062 19.2187 0.000634307 19.3972 0.0745631C19.5756 0.14849 19.7282 0.273687 19.8355 0.434314C19.9428 0.594941 20 0.783782 20 0.976955Z" fill="black"/>
</svg>
